<svg xmlns="http://www.w3.org/2000/svg" viewBox="0 0 100 100">
  <defs>
    <linearGradient id="bg" x1="0" y1="0" x2="100" y2="100" gradientUnits="userSpaceOnUse">
      <stop offset="0%" stop-color="#0f0c24"/>
      <stop offset="100%" stop-color="#1a1245"/>
    </linearGradient>
    <linearGradient id="a" x1="20" y1="10" x2="80" y2="90" gradientUnits="userSpaceOnUse">
      <stop offset="0%"   stop-color="#e0d4ff"/>
      <stop offset="45%"  stop-color="#a78bfa"/>
      <stop offset="100%" stop-color="#6d28d9"/>
    </linearGradient>
    <linearGradient id="b" x1="10" y1="50" x2="60" y2="100" gradientUnits="userSpaceOnUse">
      <stop offset="0%"   stop-color="#a78bfa"/>
      <stop offset="100%" stop-color="#6d28d9" stop-opacity="0.7"/>
    </linearGradient>
  </defs>
  <rect width="100" height="100" rx="22" fill="url(#bg)"/>
  <path d="M 30 72 C 20 80 12 88 16 96 C 20 100 26 96 28 88 C 30 82 32 78 36 74 Z" fill="url(#b)" opacity="0.9"/>
  <path d="M 36 70 C 28 76 22 84 28 93 C 32 98 38 93 38 85 C 38 79 40 74 44 70 Z" fill="url(#b)" opacity="0.75"/>
  <path d="M 44 68 C 38 73 34 80 40 88 C 44 93 50 88 48 81 C 47 76 48 71 52 68 Z" fill="url(#b)" opacity="0.6"/>
  <path d="M 42 58 C 36 64 28 68 18 70 C 14 71 12 68 15 66 C 22 62 30 58 36 52 C 38 50 40 48 42 46 C 46 54 44 56 42 58 Z" fill="url(#a)" opacity="0.85"/>
  <path d="M 48 44 C 44 34 38 22 28 14 C 24 11 20 12 20 16 C 20 20 26 24 32 30 C 38 36 42 40 46 48 C 46 48 48 46 48 44 Z" fill="url(#a)"/>
  <path d="M 44 52 C 40 44 42 34 50 26 C 56 20 64 18 70 20 C 76 22 78 28 74 34 C 70 40 62 44 56 48 C 52 50 48 52 44 52 Z" fill="url(#a)"/>
  <path d="M 68 14 C 64 10 58 10 56 14 C 54 18 56 24 60 26 C 64 28 70 26 72 22 C 74 18 72 16 68 14 Z" fill="url(#a)"/>
  <path d="M 72 16 L 82 11 L 76 20 Z" fill="#e0d4ff" opacity="0.9"/>
  <circle cx="63" cy="18" r="2.2" fill="#0f0c24" opacity="0.8"/>
</svg>
